<svg width="16" height="30" fill="none" xmlns="http://www.w3.org/2000/svg"><path d="M12.3 6c1 0 2 0 2.7-.3.4-.8.6-2 .6-3.1-.2 0-.1-.3-.2-.4 0-.2-.3-.2-.3-.4l-.7-.7-2.2-.5-2.6.1C7 .7 5.6 2 4.3 3.2v.2C3.5 5.1 4 7.2 4 9.3l.2 1.4c-1 .3-2.2.4-3.4.5-.3.4-.2 1.2-.2 1.8l.4 1.7.8.5.1.1c.5.3 1.5 0 2.3.1 0 2 .3 4 0 6 0 .3.3.4.2.8 0 1 0 2 .2 2.8-.3.5-.5 1-.4 1.9l.1.3c0 .5.6.2.5.7.2.5-.4.2-.4.5v1c.5.3 1.5.2 2.3.2 1-.4 2.2-.5 2.8-1.3.5.2.9 0 1.2-.2 0-.3.3-.3.2-.7 0-.3-.2-.5-.1-1v-3c-.2-2.4 0-5-.3-7.5.9 0 1.9 0 2.6-.4.4-.5.4-1.2.5-2 .2-.2.2-.6.2-1 .2-.2.1-.7.1-1.2-.1-.6-.2-1.3-.8-1.4-.9-.2-2 .6-3 .3 0-1.1-.3-2.4 0-3.5l2.2-.7Zm-3.8 5 .4.8h.2c1.2.2 2.2 0 3.1-.2 0 1-.3 1.7-.5 2.6-.7 0-1.5.3-2 .2l-.6.7c0 .4.1.5 0 .8-.2.1 0 .7-.2.9v5.7c-.2.3 0 .3 0 .5v3.1l.1 1c0 .4-.4 0-.8 0-.5.2-.9.5-1.5.5.1-.4.3-.6.3-1.1 0-.5-.4-.4-.5-.6.2-.6.6-1.1.7-1.8.2-.6.7-1.4.3-2-.5 0-.5.4-.8.5v.2c0 .1 0 .2-.2.2 0 .1-.2.1 0 0l.1-.2.1-.2v-.3c.4-.6.7-1.3.8-2.1l.4-1c.2-.4.3-1 .1-1.3-.5 0-.8.3-.9.7-.3-.2.2-.4.1-.7l.3-.8c.2-.4.6-1.4 0-1.7-.4 0-.6.2-.7.5-.2.2-.4.4-.5.8-.4-.1 0-.8-.2-1.2v-1.2c-.6-.9-2-.1-3.2-.3 0-.4-.2-1 0-1.3 1-.1 2.4.2 3.1-.2l.1-.2c.1-.7-.3-1-.5-1.5.2-.8 0-2 .1-3.1l.5-.6c.1-1 .7-1.6.7-2.6-.3 0-.6-.1-.6.2-.3-.1-.4.5-.5.2 0-.5.2-.6.3-1 .6-.5 1.2-.9 2-1.3a15 15 0 0 1 6 .2c.1.6-.3 1-.2 1.6h-1.5c-1.1.2-2 .7-3 1l-.5.4c0 .4-.2.7-.3 1-.3 1.5 0 2.8 0 4.2Z" fill="#000"/></svg>