<svg width="1150" height="34" viewBox="0 0 1150 34" fill="none" xmlns="http://www.w3.org/2000/svg">
<path d="M1169.8 0C1154.15 0 1154.15 14 1138.61 14C1123.07 14 1122.96 0 1107.41 0C1091.87 0 1091.76 14 1076.22 14C1060.57 14 1060.57 0 1044.91 0C1029.26 0 1029.26 14 1013.72 14C998.065 14 998.065 0 982.522 0C966.87 0 966.87 14 951.326 14C935.783 14 935.348 0 919.804 0C904.152 0 904.152 14 888.609 14C873.065 14 872.848 0 857.304 0C841.652 0 841.652 14 826.109 14C810.456 14 810.456 0 794.804 0C779.152 0 779.152 14 763.609 14C747.956 14 747.957 0 732.413 0C716.87 0 716.652 14 701 14C685.348 14 685.348 0 669.804 0C654.152 0 654.152 14 638.609 14C622.956 14 622.956 0 607.304 0C591.652 0 591.652 14 576.109 14C560.456 14 560.457 0 544.913 0C529.261 0 529.261 14 513.717 14C498.065 14 498.065 0 482.522 0C466.87 0 466.87 14 451.217 14C435.565 14 435.565 0 419.913 0C404.261 0 404.261 14 388.609 14C372.957 14 372.957 0 357.304 0C341.652 0 341.652 14 326 14C310.348 14 310.348 0 294.696 0C279.043 0 279.043 14 263.391 14C247.739 14 247.739 0 232.087 0C216.435 0 216.435 14 200.891 14C185.239 14 185.239 0 169.587 0C153.935 0 153.935 14 138.283 14C122.63 14 122.63 0 106.978 0C91.3261 0 91.3261 14 75.6739 14C60.0217 14 60.0217 0 44.3696 0C29.1522 0 29.1522 14 13.5 14C-2.15217 14 -2.15218 0 -17.6957 0C-33.2391 0 -33.3478 14 -49 14V34H1201V14C1185.35 14 1185.35 0 1169.8 0Z" fill="white"/>
</svg>
